<svg xmlns="http://www.w3.org/2000/svg" width="1651.13" height="750.099"
  viewBox="0 0 1651.13 750.099" class="h-full w-full max-h-48 object-contain object-center"
  aria-label="Cow head with team number and nickname, white">
  <g transform="translate(-37.518 -53.954)">
    <g>
      <g>
        <path
          d="M737.408,175.392c-38.25,0-68.3-37.444-112.028-37.444H551.619c30.05,31.2,21.859,93.613,87.433,93.613h68.3l30.059,134.18c2.73,12.481,32.777,9.36,38.25,24.961l24.586,162.266c-13.664,46.808,24.589,43.679,62.84,43.679s76.5,3.129,62.844-43.679L950.514,390.7c5.461-15.6,35.523-12.48,38.25-24.961l30.058-134.18h68.3c65.578,0,57.379-62.413,87.434-93.613h-73.77c-43.711,0-73.769,37.444-112.019,37.444C1046.143,147.3,680.033,147.3,737.408,175.392Z"
          fill="#fff"></path>
        <path
          d="M1174.553,137.39h-73.77c-22.723,0-41.726,10.027-60.093,19.728-16.508,8.711-32.165,16.877-49.544,17.582,2.836-1.685,4.3-3.342,4.3-5a2.907,2.907,0,0,0-.082-.687c-2.441-10.534-68.2-15.248-132.3-15.248-64.07,0-129.82,4.716-132.258,15.248a3.13,3.13,0,0,0-.082.687c0,1.654,1.473,3.311,4.3,5-17.379-.705-33.035-8.871-49.539-17.582-18.371-9.7-37.371-19.728-60.1-19.728H550.31l.91.939c10.125,10.516,15.985,24.856,21.649,38.727,11.05,27.068,22.488,55.066,66.183,55.066H706.9c.191.861,29.965,133.74,29.965,133.74,1.371,6.278,9.129,8.739,17.336,11.362,8.929,2.837,18.16,5.777,20.925,13.658,0,.062,24.18,159.625,24.543,162.053a62.265,62.265,0,0,0-2.812,17.072c0,6.187,1.484,11.207,4.453,15.152,9.266,12.293,31.476,12.184,55,12.067l6.774-.016,6.769.016c23.52.117,45.739.226,55-12.067,2.98-3.945,4.457-8.965,4.457-15.152a62.291,62.291,0,0,0-2.817-17.072c.039-.225,24.578-162.143,24.578-162.143,2.731-7.791,11.965-10.731,20.9-13.568,8.215-2.623,15.972-5.092,17.34-11.362,0,0,29.765-132.879,29.965-133.74h67.851c43.691,0,55.137-28,66.191-55.066,5.661-13.871,11.52-28.211,21.645-38.727l.9-.939ZM1041.209,158.1c18.254-9.631,37.125-19.6,59.574-19.6h72.543c-9.742,10.574-15.5,24.565-21.051,38.137-11.414,27.961-22.215,54.373-65.156,54.373h-68.75L988.225,365.62c-1.243,5.653-8.7,8.028-16.6,10.539-8.766,2.8-18.691,5.949-21.625,14.356-.031.1-24.621,162.367-24.621,162.367l-.031.121.043.119a61.262,61.262,0,0,1,2.812,16.885c0,5.941-1.406,10.726-4.238,14.486-8.93,11.846-30.867,11.736-54.1,11.625l-6.781-.023-6.777.023c-23.235.111-45.177.221-54.1-11.625-5.137-6.807-5.6-17.072-1.422-31.371l.035-.119L776.2,390.618c-2.969-8.51-12.895-11.662-21.661-14.451-7.894-2.519-15.359-4.894-16.589-10.543L707.794,231.009H639.052c-42.949,0-53.73-26.412-65.156-54.377-5.543-13.568-11.309-27.559-21.055-38.133H625.38c22.461,0,41.328,9.967,59.578,19.6,17.4,9.177,33.821,17.853,52.45,17.853l.246-1.058c-4.156-2.034-6.153-3.975-5.766-5.627,1.926-8.334,57.1-14.383,131.172-14.383,74.11,0,129.293,6.049,131.227,14.383.383,1.652-1.609,3.593-5.769,5.627l.246,1.058C1007.4,175.95,1023.815,167.274,1041.209,158.1Z"
          fill="#fff"></path>
      </g>
      <path
        d="M961.846,92.952c0,18.219-43.524,32.994-97.215,32.994s-97.212-14.775-97.212-32.994,43.524-33,97.212-33S961.846,74.731,961.846,92.952Z"
        fill="none" stroke="#fff" stroke-miterlimit="10" stroke-width="12"></path>
    </g>
    <g>
      <g>
        <path d="M109.7,705.827H83.834v67.489H65.79V705.827H37.518V689.1H109.7Z" fill="#fff"></path>
        <path
          d="M183.081,773.316H128.946a12.116,12.116,0,0,1-12.031-12.03V701.135a12.118,12.118,0,0,1,12.031-12.03h54.135v16.722H134.96v12.151h48.121V734.7H134.96v21.9h48.121Z"
          fill="#fff"></path>
        <path
          d="M276.917,773.316h-20.6l-7.569-19.247H214.86l-7.7,19.247H186.689L220.375,689.1h22.856Zm-34.861-35.968-10.317-25.793L221.55,737.348Z"
          fill="#fff"></path>
        <path
          d="M371.954,773.316H353.909v-42.1l-20.45,42.1H319.022L298.57,731.207v42.109H280.525V689.1h18.06l27.387,57.22L353.9,689.1h18.058Z"
          fill="#fff"></path>
        <path d="M439.322,773.316H421.277V705.827h-12.03V689.1h30.075Z" fill="#fff"></path>
        <path
          d="M512.706,761.286a12.116,12.116,0,0,1-12.03,12.03H446.54V756.6h48.121V734.7H458.57a12.1,12.1,0,0,1-12.03-12V689.1h66.166v16.722H464.585v12.151h36.091a12.118,12.118,0,0,1,12.03,12.03Z"
          fill="#fff"></path>
        <path
          d="M586.088,761.286a12.115,12.115,0,0,1-12.029,12.03H519.922V756.6h48.12V734.7H543.983V717.978h24.059V705.827h-48.12V689.1h54.137a12.116,12.116,0,0,1,12.029,12.03v13.234A12.113,12.113,0,0,1,574.059,726.4a12.116,12.116,0,0,1,12.029,12.032Z"
          fill="#fff"></path>
        <path
          d="M659.47,761.286a12.115,12.115,0,0,1-12.029,12.03H605.334a12.116,12.116,0,0,1-12.029-12.03V738.43A12.118,12.118,0,0,1,605.334,726.4,12.115,12.115,0,0,1,593.3,714.369V701.135a12.118,12.118,0,0,1,12.029-12.03h42.107a12.116,12.116,0,0,1,12.029,12.03v13.234A12.113,12.113,0,0,1,647.441,726.4,12.116,12.116,0,0,1,659.47,738.43Zm-18.045-43.308V705.827H611.35v12.151Zm0,38.618V734.7H611.35v21.9Z"
          fill="#fff"></path>
      </g>
      <path d="M730.784,658.37h-16.9L684.908,804.053h16.9Z" fill="#fff"></path>
      <g>
        <path d="M826.1,705.827H800.233v67.489H782.187V705.827H753.916V689.1H826.1Z" fill="#fff"></path>
        <path
          d="M905.5,773.316H887.449V734.7h-36.09v38.615H833.314V689.1h18.045v28.873h36.09V689.1H905.5Z"
          fill="#fff"></path>
        <path
          d="M978.877,773.316H924.744a12.12,12.12,0,0,1-12.033-12.03V701.135a12.122,12.122,0,0,1,12.033-12.03h54.133v16.722H930.758v12.151h48.119V734.7H930.758v21.9h48.119Z"
          fill="#fff"></path>
        <path
          d="M1088.352,773.316H1070.3V734.7h-36.09v38.615H1016.17V689.1h18.043v28.873h36.09V689.1h18.049Z"
          fill="#fff"></path>
        <path
          d="M1167.748,761.286a12.113,12.113,0,0,1-12.029,12.03H1107.6a12.113,12.113,0,0,1-12.03-12.03V701.135a12.115,12.115,0,0,1,12.03-12.03h48.121a12.115,12.115,0,0,1,12.029,12.03ZM1149.7,756.6V705.827h-36.092V756.6Z"
          fill="#fff"></path>
        <path d="M1241.133,773.316H1187a12.113,12.113,0,0,1-12.029-12.03V689.1h18.043V756.6h48.123Z"
          fill="#fff"></path>
        <path
          d="M1300.08,689.1,1267,734.825v38.491h-18.045v-38.5l-33.08-45.715h22.867l19.237,26.378,19.234-26.378Z"
          fill="#fff"></path>
        <path
          d="M1403.539,773.316H1349.4a12.113,12.113,0,0,1-12.029-12.03V701.135A12.115,12.115,0,0,1,1349.4,689.1h54.137v16.722h-48.121V756.6h48.121Z"
          fill="#fff"></path>
        <path
          d="M1482.938,761.286a12.12,12.12,0,0,1-12.032,12.03h-48.121a12.12,12.12,0,0,1-12.031-12.03V701.135a12.122,12.122,0,0,1,12.031-12.03h48.121a12.122,12.122,0,0,1,12.032,12.03Zm-18.047-4.69V705.827H1428.8V756.6Z"
          fill="#fff"></path>
        <path
          d="M1612.859,689.1l-33.683,84.211h-22.858l-6.615-16.543-6.617,16.543h-22.857L1486.543,689.1h20.6l24.578,61.763,7.746-19.682L1522.633,689.1h20.6l6.53,16.328L1556.3,689.1h20.471L1560,731.022l7.811,19.847,24.576-61.764Z"
          fill="#fff"></path>
        <path
          d="M1688.648,761.286a12.111,12.111,0,0,1-12.027,12.03h-60.152V756.6H1670.6V734.7h-42.1a12.1,12.1,0,0,1-12.029-12V701.1a12.1,12.1,0,0,1,12.029-12h60.15v16.722h-54.136v12.151h42.109a12.113,12.113,0,0,1,12.027,12.03Z"
          fill="#fff"></path>
      </g>
    </g>
  </g>
</svg>
