<svg version="1.1" xmlns="http://www.w3.org/2000/svg" viewBox="0 0 1728 864" class="h-full w-full max-h-48 object-contain object-center" aria-label="Cow head with team number and nickname, black"><g><g><g><path d="M737.4,175.4c-38.2,0-68.3-37.4-112-37.4h-73.8c30.1,31.2,21.9,93.6,87.4,93.6h68.3l30.1,134.2c2.7,12.5,32.8,9.4,38.2,25L800.2,553c-13.7,46.8,24.6,43.7,62.8,43.7c38.2,0,76.5,3.1,62.8-43.7l24.6-162.3c5.5-15.6,35.5-12.5,38.2-25l30.1-134.2h68.3c65.6,0,57.4-62.4,87.4-93.6h-73.8c-43.7,0-73.8,37.4-112,37.4C1046.1,147.3,680,147.3,737.4,175.4z"></path><path d="M1174.6,137.4h-73.8c-22.7,0-41.7,10-60.1,19.7c-16.5,8.7-32.2,16.9-49.5,17.6c2.8-1.7,4.3-3.3,4.3-5c0-0.2,0-0.5-0.1-0.7c-2.4-10.5-68.2-15.2-132.3-15.2c-64.1,0-129.8,4.7-132.3,15.2c-0.1,0.2-0.1,0.5-0.1,0.7c0,1.7,1.5,3.3,4.3,5c-17.4-0.7-33-8.9-49.5-17.6c-18.4-9.7-37.4-19.7-60.1-19.7h-75.1l0.9,0.9c10.1,10.5,16,24.9,21.6,38.7c11.1,27.1,22.5,55.1,66.2,55.1c0,0,67,0,67.9,0c0.2,0.9,30,133.7,30,133.7c1.4,6.3,9.1,8.7,17.3,11.4c8.9,2.8,18.2,5.8,20.9,13.7c0,0.1,24.2,159.6,24.5,162.1c-1.9,6.5-2.8,12.1-2.8,17.1c0,6.2,1.5,11.2,4.5,15.2c9.3,12.3,31.5,12.2,55,12.1l6.8,0l6.8,0c23.5,0.1,45.7,0.2,55-12.1c3-3.9,4.5-9,4.5-15.2c0-4.9-0.9-10.6-2.8-17.1c0-0.2,24.6-162.1,24.6-162.1c2.7-7.8,12-10.7,20.9-13.6c8.2-2.6,16-5.1,17.3-11.4c0,0,29.8-132.9,30-133.7c0.9,0,67.9,0,67.9,0c43.7,0,55.1-28,66.2-55.1c5.7-13.9,11.5-28.2,21.6-38.7l0.9-0.9H1174.6z M1041.2,158.1c18.3-9.6,37.1-19.6,59.6-19.6c0,0,70.2,0,72.5,0c-9.7,10.6-15.5,24.6-21.1,38.1c-11.4,28-22.2,54.4-65.2,54.4h-68.8l-30.1,134.6c-1.2,5.7-8.7,8-16.6,10.5c-8.8,2.8-18.7,5.9-21.6,14.4c0,0.1-24.6,162.4-24.6,162.4l0,0.1l0,0.1c1.9,6.4,2.8,12,2.8,16.9c0,5.9-1.4,10.7-4.2,14.5c-8.9,11.8-30.9,11.7-54.1,11.6l-6.8,0l-6.8,0c-23.2,0.1-45.2,0.2-54.1-11.6c-5.1-6.8-5.6-17.1-1.4-31.4l0-0.1l-24.6-162.4c-3-8.5-12.9-11.7-21.7-14.5c-7.9-2.5-15.4-4.9-16.6-10.5c0,0-30.2-134.6-30.2-134.6h-68.7c-42.9,0-53.7-26.4-65.2-54.4c-5.5-13.6-11.3-27.6-21.1-38.1c2.4,0,72.5,0,72.5,0c22.5,0,41.3,10,59.6,19.6c17.4,9.2,33.8,17.9,52.4,17.9l0.2-1.1c-4.2-2-6.2-4-5.8-5.6c1.9-8.3,57.1-14.4,131.2-14.4c74.1,0,129.3,6,131.2,14.4c0.4,1.7-1.6,3.6-5.8,5.6l0.2,1.1C1007.4,176,1023.8,167.3,1041.2,158.1z"></path></g><path fill="none" stroke="#000000" stroke-width="12" stroke-miterlimit="10" d="M961.8,93c0,18.2-43.5,33-97.2,33c-53.7,0-97.2-14.8-97.2-33c0-18.2,43.5-33,97.2-33C918.3,60,961.8,74.7,961.8,93z"></path></g><g><g><path d="M109.7,705.8H83.8v67.5h-18v-67.5H37.5v-16.7h72.2V705.8z"></path><path d="M183.1,773.3h-54.1c-3.3,0-6.1-1.2-8.5-3.5c-2.4-2.4-3.5-5.2-3.5-8.5v-60.2c0-3.3,1.2-6.1,3.5-8.5c2.4-2.4,5.2-3.5,8.5-3.5h54.1v16.7H135V718h48.1v16.7H135v21.9h48.1V773.3z"></path><path d="M276.9,773.3h-20.6l-7.6-19.2h-33.9l-7.7,19.2h-20.5l33.7-84.2h22.9L276.9,773.3z M242.1,737.3l-10.3-25.8l-10.2,25.8H242.1z"></path><path d="M372,773.3h-18v-42.1l-20.4,42.1H319l-20.5-42.1v42.1h-18v-84.2h18.1l27.4,57.2l27.9-57.2H372V773.3z"></path><path d="M439.3,773.3h-18v-67.5h-12v-16.7h30.1V773.3z"></path><path d="M512.7,761.3c0,3.3-1.2,6.1-3.5,8.5c-2.4,2.4-5.2,3.5-8.5,3.5h-54.1v-16.7h48.1v-21.9h-36.1c-3.3,0-6.1-1.2-8.5-3.5c-2.4-2.4-3.5-5.2-3.5-8.5v-33.6h66.2v16.7h-48.1V718h36.1c3.3,0,6.1,1.2,8.5,3.5c2.4,2.4,3.5,5.2,3.5,8.5V761.3z"></path><path d="M586.1,761.3c0,3.3-1.2,6.1-3.5,8.5c-2.4,2.4-5.2,3.5-8.5,3.5h-54.1v-16.7H568v-21.9H544V718H568v-12.2h-48.1v-16.7h54.1c3.3,0,6.1,1.2,8.5,3.5c2.4,2.4,3.5,5.2,3.5,8.5v13.2c0,3.3-1.2,6.1-3.5,8.5c-2.4,2.4-5.2,3.5-8.5,3.5c3.3,0,6.1,1.2,8.5,3.5c2.4,2.4,3.5,5.2,3.5,8.5V761.3z"></path><path d="M659.5,761.3c0,3.3-1.2,6.1-3.5,8.5c-2.4,2.4-5.2,3.5-8.5,3.5h-42.1c-3.3,0-6.1-1.2-8.5-3.5c-2.4-2.4-3.5-5.2-3.5-8.5v-22.9c0-3.3,1.2-6.1,3.5-8.5c2.4-2.4,5.2-3.5,8.5-3.5c-3.3,0-6.1-1.2-8.5-3.5c-2.4-2.4-3.5-5.2-3.5-8.5v-13.2c0-3.3,1.2-6.1,3.5-8.5c2.4-2.4,5.2-3.5,8.5-3.5h42.1c3.3,0,6.1,1.2,8.5,3.5c2.4,2.4,3.5,5.2,3.5,8.5v13.2c0,3.3-1.2,6.1-3.5,8.5c-2.4,2.4-5.2,3.5-8.5,3.5c3.3,0,6.1,1.2,8.5,3.5c2.4,2.4,3.5,5.2,3.5,8.5V761.3z M641.4,718v-12.2h-30.1V718H641.4z M641.4,756.6v-21.9h-30.1v21.9H641.4z"></path></g><polygon points="730.8,658.4 713.9,658.4 684.9,804.1 701.8,804.1"></polygon><g><path d="M826.1,705.8h-25.9v67.5h-18v-67.5h-28.3v-16.7h72.2V705.8z"></path><path d="M905.5,773.3h-18v-38.6h-36.1v38.6h-18v-84.2h18V718h36.1v-28.9h18V773.3z"></path><path d="M978.9,773.3h-54.1c-3.3,0-6.1-1.2-8.5-3.5c-2.4-2.4-3.6-5.2-3.6-8.5v-60.2c0-3.3,1.2-6.1,3.6-8.5c2.4-2.4,5.2-3.5,8.5-3.5h54.1v16.7h-48.1V718h48.1v16.7h-48.1v21.9h48.1V773.3z"></path><path d="M1088.4,773.3h-18v-38.6h-36.1v38.6h-18v-84.2h18V718h36.1v-28.9h18V773.3z"></path><path d="M1167.7,761.3c0,3.3-1.2,6.1-3.5,8.5c-2.4,2.4-5.2,3.5-8.5,3.5h-48.1c-3.3,0-6.1-1.2-8.5-3.5c-2.4-2.4-3.5-5.2-3.5-8.5v-60.2c0-3.3,1.2-6.1,3.5-8.5c2.4-2.4,5.2-3.5,8.5-3.5h48.1c3.3,0,6.1,1.2,8.5,3.5c2.4,2.4,3.5,5.2,3.5,8.5V761.3z M1149.7,756.6v-50.8h-36.1v50.8H1149.7z"></path><path d="M1241.1,773.3H1187c-3.3,0-6.1-1.2-8.5-3.5c-2.4-2.4-3.5-5.2-3.5-8.5v-72.2h18v67.5h48.1V773.3z"></path><path d="M1300.1,689.1l-33.1,45.7v38.5h-18v-38.5l-33.1-45.7h22.9l19.2,26.4l19.2-26.4H1300.1z"></path><path d="M1403.5,773.3h-54.1c-3.3,0-6.1-1.2-8.5-3.5c-2.4-2.4-3.5-5.2-3.5-8.5v-60.2c0-3.3,1.2-6.1,3.5-8.5c2.4-2.4,5.2-3.5,8.5-3.5h54.1v16.7h-48.1v50.8h48.1V773.3z"></path><path d="M1482.9,761.3c0,3.3-1.2,6.1-3.6,8.5c-2.4,2.4-5.2,3.5-8.5,3.5h-48.1c-3.3,0-6.1-1.2-8.5-3.5c-2.4-2.4-3.6-5.2-3.6-8.5v-60.2c0-3.3,1.2-6.1,3.6-8.5c2.4-2.4,5.2-3.5,8.5-3.5h48.1c3.3,0,6.1,1.2,8.5,3.5c2.4,2.4,3.6,5.2,3.6,8.5V761.3z M1464.9,756.6v-50.8h-36.1v50.8H1464.9z"></path><path d="M1612.9,689.1l-33.7,84.2h-22.9l-6.6-16.5l-6.6,16.5h-22.9l-33.7-84.2h20.6l24.6,61.8l7.7-19.7l-16.8-42.1h20.6l6.5,16.3l6.5-16.3h20.5L1560,731l7.8,19.8l24.6-61.8H1612.9z"></path><path d="M1688.6,761.3c0,3.3-1.2,6.1-3.5,8.5c-2.4,2.4-5.2,3.5-8.5,3.5h-60.2v-16.7h54.1v-21.9h-42.1c-3.3,0-6.1-1.2-8.5-3.5c-2.4-2.4-3.5-5.2-3.5-8.5v-21.6c0-3.3,1.2-6.1,3.5-8.5c2.4-2.4,5.2-3.5,8.5-3.5h60.2v16.7h-54.1V718h42.1c3.3,0,6.1,1.2,8.5,3.5c2.4,2.4,3.5,5.2,3.5,8.5V761.3z"></path></g></g></g></svg>
